PathFileType	4	(X/Y/Z)	/Users/itak/Documents/Research/Walk-IL/dataset/trc/00387_00012.trc
DataRate	CameraRate	NumFrames	NumMarkers	Units	OrigDataRate	OrigDataStartFrame	OrigNumFrames
100.000000	100.000000	4	56	mm	100.000000	444	593
Frame#	Time	RPSI			LPSI			L3			STRN			T10			C7			CLAV			RBAK			LBAK			LSHO			LUPA			LAEL			LAOL			LWTS			LWPS			LFRA			LIFD			LHPS			LHTS			RSHO			RUPA			RAEL			RAOL			RWTS			RWPS			RFRA			RIFD			RHTS			RHPS			RBHD			LFHD			RFHD			LBHD			RASI			LKNE			LTHI			LANK			LTIP			LTOE			LMT1			LMT5			LHEE			RKNE			RANK			RTIP			RTOE			RMT1			RMT5			RHEE			LASI			LHIP			RHIP			RTHI			*53			*54			*55			
		X1	Y1	Z1	X2	Y2	Z2	X3	Y3	Z3	X4	Y4	Z4	X5	Y5	Z5	X6	Y6	Z6	X7	Y7	Z7	X8	Y8	Z8	X9	Y9	Z9	X10	Y10	Z10	X11	Y11	Z11	X12	Y12	Z12	X13	Y13	Z13	X14	Y14	Z14	X15	Y15	Z15	X16	Y16	Z16	X17	Y17	Z17	X18	Y18	Z18	X19	Y19	Z19	X20	Y20	Z20	X21	Y21	Z21	X22	Y22	Z22	X23	Y23	Z23	X24	Y24	Z24	X25	Y25	Z25	X26	Y26	Z26	X27	Y27	Z27	X28	Y28	Z28	X29	Y29	Z29	X30	Y30	Z30	X31	Y31	Z31	X32	Y32	Z32	X33	Y33	Z33	X34	Y34	Z34	X35	Y35	Z35	X36	Y36	Z36	X37	Y37	Z37	X38	Y38	Z38	X39	Y39	Z39	X40	Y40	Z40	X41	Y41	Z41	X42	Y42	Z42	X43	Y43	Z43	X44	Y44	Z44	X45	Y45	Z45	X46	Y46	Z46	X47	Y47	Z47	X48	Y48	Z48	X49	Y49	Z49	X50	Y50	Z50	X51	Y51	Z51	X52	Y52	Z52	X53	Y53	Z53	X54	Y54	Z54	X55	Y55	Z55	X56	Y56	Z56	

445	4.44	-1346.68115234375	983.4533081054688	46.39446640014648	-1354.299194335938	975.496337890625	-85.18053436279297	-1343.368286132812	1063.133544921875	-9.117913246154785	-1086.024658203125	1205.462768554688	-15.46854686737061	-1341.571044921875	1168.105102539062	-7.270224571228027	-1283.357055664062	1413.175170898438	-9.519900321960449	-1133.702270507812	1327.459838867188	-13.63286304473877	-1332.093383789062	1270.667602539062	56.75071716308594	-1307.747802734375	1379.0478515625	-112.1517715454102	-1223.12548828125	1388.98681640625	-168.2968597412109	-1267.590087890625	1280.138549804688	-238.8095855712891	-1277.073364257812	1086.816772460938	-278.5053100585938	-1331.373657226562	1067.78564453125	-215.4656829833984	-1193.203002929688	869.0113525390625	-253.9873657226562	-1245.31982421875	861.0050659179688	-316.2677307128906	-1266.703247070312	983.6534423828125	-296.59326171875	-1194.820190429688	690.378173828125	-269.8658142089844	-1230.783203125	775.3146362304688	-314.1651000976562	-1175.838500976562	774.586669921875	-281.570068359375	-1220.570678710938	1388.433471679688	144.2088470458984	-1238.827880859375	1325.372802734375	202.6573333740234	-1268.077880859375	1066.522705078125	241.4545135498047	-1286.799926757812	1057.653198242188	147.4736633300781	-1171.4150390625	835.2315673828125	226.81884765625	-1218.864013671875	833.8487548828125	283.2886657714844	-1253.335693359375	999.6306762695312	260.4961853027344	-1204.697509765625	664.246826171875	232.8286895751953	-1175.400634765625	728.9144897460938	249.8284149169922	-1230.071166992188	744.8373413085938	284.6307678222656	-1242.3515625	1589.8359375	81.89469909667969	-1111.90087890625	1607.401123046875	-67.39651489257812	-1112.3896484375	1606.041137695312	55.21199417114258	-1258.88134765625	1589.285400390625	-79.57106018066406	-1131.956420898438	958.6743774414062	109.7596206665039	-1063.878662109375	510.0187683105469	-194.3417510986328	-1119.83544921875	641.3687133789062	-203.1222381591797	-1212.608642578125	76.28987121582031	-208.8373413085938	-1138.260498046875	284.3473510742188	-215.7597198486328	-1007.127868652344	77.53627777099609	-136.3128356933594	-1084.977905273438	72.44261932373047	-107.3014221191406	-1085.951171875	66.1917724609375	-213.5966186523438	-1253.205688476562	75.40380096435547	-153.9622802734375	-1273.083618164062	463.8861694335938	106.8988342285156	-1391.741943359375	56.59385299682617	46.57466506958008	-1284.528564453125	336.6343688964844	84.75807952880859	-1219.479125976562	43.9517936706543	-31.61214065551758	-1293.100463867188	47.57404327392578	-52.52183151245117	-1304.194580078125	52.08800506591797	46.09736251831055	-1468.364135742188	47.14404296875	-5.228589534759521	-1154.970581054688	973.2173461914062	-151.7551116943359	-1269.532348632812	976.2586669921875	-195.9947204589844	-1266.2626953125	951.904052734375	161.0396423339844	-1206.174682617188	720.25927734375	145.5771942138672	nan	nan	nan	nan	nan	nan	nan	nan	nan	
446	4.45	-1350.6552734375	983.5581665039062	45.7774543762207	-1357.91455078125	975.7357788085938	-85.86241912841797	-1347.25537109375	1063.267700195312	-9.671280860900879	-1090.025390625	1205.7431640625	-14.99511241912842	-1345.443725585938	1168.234497070312	-7.580269336700439	-1287.517578125	1413.378540039062	-9.534984588623047	-1137.608642578125	1327.721557617188	-13.1758508682251	-1336.25830078125	1270.711791992188	56.45674514770508	-1311.52099609375	1379.307861328125	-112.235466003418	-1226.740234375	1389.408081054688	-168.0942230224609	-1270.858276367188	1280.495239257812	-238.8562927246094	-1279.759155273438	1087.404541015625	-279.3420715332031	-1333.5498046875	1067.664672851562	-216.0723419189453	-1192.302001953125	871.1461181640625	-256.6561889648438	-1244.985107421875	862.3287963867188	-318.2697143554688	-1268.244018554688	984.5910034179688	-297.9842224121094	-1190.55224609375	692.5916137695312	-273.8104858398438	-1228.834106445312	777.0755615234375	-316.8742065429688	-1173.3857421875	777.37548828125	-285.0015258789062	-1225.218505859375	1388.507568359375	144.4051818847656	-1243.660034179688	1325.372802734375	202.7229919433594	-1273.804443359375	1066.628662109375	241.2360229492188	-1291.919555664062	1057.806762695312	147.1498413085938	-1178.224365234375	834.9434814453125	227.2324066162109	-1226.0146484375	833.8659057617188	283.4993286132812	-1259.412719726562	999.7302856445312	260.40771484375	-1212.000244140625	664.268310546875	233.4381103515625	-1182.655517578125	728.7122802734375	250.5409393310547	-1237.742919921875	744.988037109375	285.0050659179688	-1247.01953125	1589.959716796875	82.18318176269531	-1116.34033203125	1607.899047851562	-66.86334991455078	-1117.102172851562	1606.4951171875	55.73587799072266	-1263.27880859375	1589.444091796875	-79.29063415527344	-1136.041015625	958.7560424804688	109.631233215332	-1069.71923828125	509.1716613769531	-194.7637329101562	-1124.432861328125	640.865234375	-203.2330932617188	-1230.598876953125	79.88195037841797	-210.7425994873047	-1150.203002929688	285.80126953125	-216.8296508789062	-1025.372680664062	76.97090148925781	-137.6078796386719	-1103.480590820312	73.11742401123047	-108.6965026855469	-1104.234130859375	67.23713684082031	-215.0690002441406	-1271.416870117188	79.75125885009766	-156.0211334228516	-1275.774047851562	464.0122985839844	106.8429489135742	-1392.064331054688	56.25143814086914	46.53154373168945	-1286.497680664062	336.7571411132812	84.61479949951172	-1219.66259765625	43.95087051391602	-31.81811332702637	-1293.342041015625	47.4326057434082	-52.68459320068359	-1304.512329101562	52.00128936767578	45.97270965576172	-1468.668334960938	46.37877655029297	-5.378303527832031	-1158.338012695312	973.0498046875	-152.1856384277344	-1272.763305664062	976.6294555664062	-196.7787628173828	-1270.495483398438	951.9628295898438	160.5595397949219	-1209.9248046875	720.5394287109375	145.495849609375	nan	nan	nan	nan	nan	nan	nan	nan	nan	
447	4.46	-1354.5283203125	983.6149291992188	45.12883758544922	-1361.463623046875	975.8950805664062	-86.580322265625	-1351.102905273438	1063.352172851562	-10.33559036254883	-1093.94677734375	1205.972900390625	-14.5715217590332	-1349.136474609375	1168.275146484375	-8.012927055358887	-1291.596923828125	1413.517822265625	-9.627599716186523	-1141.486328125	1327.903930664062	-12.77845478057861	-1340.366577148438	1270.692260742188	56.07695007324219	-1315.202514648438	1379.49951171875	-112.4015350341797	-1230.26513671875	1389.754638671875	-167.9704284667969	-1273.996948242188	1280.72021484375	-238.9441070556641	-1282.279907226562	1087.863891601562	-280.1070861816406	-1335.543823242188	1067.4345703125	-216.5998229980469	-1191.361694335938	873.1555786132812	-259.2731018066406	-1244.719604492188	863.51025390625	-320.128662109375	-1269.697509765625	985.3922119140625	-299.2827453613281	-1186.309204101562	694.8001098632812	-277.7053833007812	-1226.981201171875	778.7482299804688	-319.4605102539062	-1170.960693359375	780.0840454101562	-288.4250183105469	-1229.81689453125	1388.504516601562	144.5420074462891	-1248.47119140625	1325.28759765625	202.7106170654297	-1279.452270507812	1066.643798828125	240.9335021972656	-1296.91357421875	1057.853271484375	146.7432556152344	-1184.731323242188	834.6635131835938	227.6181030273438	-1232.907470703125	833.843505859375	283.6332397460938	-1265.37841796875	999.74462890625	260.2449645996094	-1218.6728515625	664.2728881835938	234.0535736083984	-1189.4306640625	728.5466918945312	251.2628021240234	-1245.012817382812	745.0822143554688	285.3188781738281	-1251.618530273438	1590.0283203125	82.40427398681641	-1120.67822265625	1608.333618164062	-66.374267578125	-1121.737915039062	1606.907348632812	56.20535659790039	-1267.585083007812	1589.52880859375	-79.07698822021484	-1140.003051757812	958.8139038085938	109.4172058105469	-1075.588256835938	508.2046203613281	-195.2039184570312	-1129.068603515625	640.2357788085938	-203.3400421142578	-1248.241577148438	83.58914947509766	-212.459716796875	-1161.994873046875	287.24365234375	-217.8270111083984	-1043.304077148438	76.48405456542969	-138.8709564208984	-1121.656372070312	73.89754486083984	-110.0026016235352	-1122.242431640625	68.37557983398438	-216.4544982910156	-1289.163818359375	84.20185089111328	-157.8326110839844	-1278.1591796875	464.1091003417969	106.72412109375	-1392.3251953125	55.95913314819336	46.48147964477539	-1288.221435546875	336.8390502929688	84.39669799804688	-1219.820922851562	43.94879150390625	-32.01849365234375	-1293.567626953125	47.28704071044922	-52.8562126159668	-1304.784545898438	51.92483520507812	45.86013793945312	-1468.947509765625	45.7309455871582	-5.540529251098633	-1161.574096679688	972.7989501953125	-152.7526092529297	-1275.8876953125	976.8919067382812	-197.7092895507812	-1274.586547851562	952.0112915039062	160.0355529785156	-1213.469604492188	720.8046875	145.3756866455078	nan	nan	nan	nan	nan	nan	nan	nan	nan	
448	4.47	-1358.293090820312	983.6605834960938	44.44724655151367	-1364.93603515625	976.0062255859375	-87.32585906982422	-1354.896362304688	1063.40380859375	-11.10266876220703	-1097.794799804688	1206.183959960938	-14.20530414581299	-1352.674194335938	1168.253173828125	-8.582335472106934	-1295.598754882812	1413.61572265625	-9.797130584716797	-1145.3359375	1328.041748046875	-12.44693946838379	-1344.42578125	1270.635498046875	55.61115264892578	-1318.802734375	1379.646362304688	-112.6527404785156	-1233.709106445312	1390.055908203125	-167.9262847900391	-1277.009155273438	1280.847290039062	-239.080810546875	-1284.607666015625	1088.222778320312	-280.8130798339844	-1337.359619140625	1067.130859375	-217.0806427001953	-1190.400146484375	875.0453491210938	-261.7955017089844	-1244.496948242188	864.5623168945312	-321.834716796875	-1271.040283203125	986.0747680664062	-300.4932556152344	-1182.090087890625	696.9912719726562	-281.4961547851562	-1225.223999023438	780.3367309570312	-321.9044799804688	-1168.558471679688	782.70751953125	-291.78564453125	-1234.372802734375	1388.45068359375	144.6138000488281	-1253.271606445312	1325.147094726562	202.6120452880859	-1285.007690429688	1066.596923828125	240.5414276123047	-1301.770385742188	1057.820678710938	146.2482757568359	-1190.923461914062	834.4107666015625	227.9701385498047	-1239.538696289062	833.8045654296875	283.6829223632812	-1271.2216796875	999.70263671875	260.0064392089844	-1224.8056640625	664.2500610351562	234.6583404541016	-1195.747680664062	728.4253540039062	251.9664459228516	-1251.90283203125	745.1351928710938	285.5641479492188	-1256.150634765625	1590.066040039062	82.56175231933594	-1124.924072265625	1608.7265625	-65.93075561523438	-1126.279174804688	1607.300659179688	56.62236404418945	-1271.799194335938	1589.564331054688	-78.92900085449219	-1143.836791992188	958.8823852539062	109.1166076660156	-1081.490478515625	507.1296997070312	-195.6587066650391	-1133.7333984375	639.50830078125	-203.4563446044922	-1265.453857421875	87.34519195556641	-213.9948883056641	-1173.595825195312	288.6449584960938	-218.7487640380859	-1060.850952148438	76.05944061279297	-140.0747375488281	-1139.409545898438	74.75475311279297	-111.2253952026367	-1139.871826171875	69.57779693603516	-217.7528839111328	-1306.37255859375	88.67678070068359	-159.4060668945312	-1280.251953125	464.1929931640625	106.5566558837891	-1392.516235351562	55.71805572509766	46.43514251708984	-1289.7119140625	336.8959045410156	84.12957000732422	-1219.95556640625	43.94771957397461	-32.20879364013672	-1293.7744140625	47.14668273925781	-53.02634429931641	-1305.01318359375	51.86137008666992	45.76161575317383	-1469.188720703125	45.21284866333008	-5.686572551727295	-1164.670654296875	972.522216796875	-153.4177703857422	-1278.959106445312	977.0484008789062	-198.7156982421875	-1278.519775390625	952.0863647460938	159.4723968505859	-1216.808227539062	721.0823974609375	145.2221221923828	nan	nan	nan	nan	nan	nan	nan	nan	nan	
